<svg width="22" height="22" viewBox="0 0 22 22" fill="none" xmlns="http://www.w3.org/2000/svg">
  <g clip-path="url(#clip0_21065_163499)">
    <path d="M14.637 2.50537C13.4824 1.35112 12.0224 0.550304 10.4285 0.196972C8.8346 -0.156361 7.17296 -0.047536 5.63875 0.510665C4.10453 1.06887 2.76146 2.05326 1.76726 3.34824C0.773067 4.64322 0.169033 6.19501 0.0261064 7.82134C-0.116821 9.44768 0.207293 11.081 0.960382 12.5296C1.71347 13.9781 2.86426 15.1817 4.2776 15.9989C5.69093 16.8161 7.30812 17.2131 8.93923 17.1432C10.5703 17.0733 12.1476 16.5394 13.4859 15.6042L19.4462 21.5646C19.7295 21.8337 20.1067 21.9814 20.4974 21.9764C20.8881 21.9714 21.2614 21.8139 21.5377 21.5377C21.8139 21.2614 21.9714 20.8881 21.9764 20.4974C21.9815 20.1067 21.8337 19.7295 21.5646 19.4462L15.6043 13.4858C16.7569 11.8329 17.2916 9.82731 17.1148 7.81994C16.938 5.81258 16.0609 3.93133 14.637 2.50537ZM13.2302 13.2288C12.3095 14.1494 11.1365 14.7764 9.8595 15.0304C8.5825 15.2844 7.25885 15.154 6.05595 14.6557C4.85305 14.1574 3.82491 13.3137 3.10155 12.2311C2.3782 11.1485 1.99211 9.87569 1.99211 8.57367C1.99211 7.27166 2.3782 5.99888 3.10155 4.91629C3.82491 3.83369 4.85305 2.98991 6.05595 2.49164C7.25885 1.99337 8.5825 1.86299 9.8595 2.11698C11.1365 2.37097 12.3095 2.99794 13.2302 3.91859C14.4638 5.15409 15.1568 6.82864 15.1569 8.57459C15.1571 10.3205 14.4644 11.9952 13.2309 13.2309L13.2302 13.2288Z" fill="#555555"/>
  </g>
  <defs>
    <clipPath id="clip0_21065_163499">
      <rect width="22" height="22" fill="white"/>
    </clipPath>
  </defs>
</svg>
